<svg xmlns="http://www.w3.org/2000/svg" width="14" height="14" viewBox="0 0 14 14" fill="none">
  <g clip-path="url(#clip0_4870_7163)">
    <path fill-rule="evenodd" clip-rule="evenodd" d="M5.24971 13.2712H8.74971C11.9184 13.2712 13.2705 11.919 13.2705 8.75033V5.25033C13.2705 2.08166 11.9184 0.729492 8.74971 0.729492H5.24971C2.08105 0.729492 0.728882 2.08166 0.728882 5.25033V8.75033C0.728882 11.919 2.08105 13.2712 5.24971 13.2712ZM1.60388 5.25033C1.60388 2.55883 2.55821 1.60449 5.24971 1.60449H8.74971C11.4418 1.60449 12.3955 2.55883 12.3955 5.25033V8.75033C12.3955 11.4418 11.4412 12.3962 8.74971 12.3962H5.24971C2.55821 12.3962 1.60388 11.4418 1.60388 8.75033V5.25033ZM7.90352 8.16738H5.11219L4.7127 8.02065C4.6661 7.97405 4.62915 7.91871 4.60397 7.85781C4.57879 7.79691 4.56588 7.73164 4.56597 7.66574V4.82982C4.56597 4.69678 4.61882 4.56919 4.71289 4.47511C4.80697 4.38104 4.93456 4.32819 5.06761 4.32819C5.20065 4.32819 5.32824 4.38104 5.42231 4.47511C5.51639 4.56919 5.56924 4.69678 5.56924 4.82982V6.45789L8.49977 3.52736C8.59518 3.44056 8.72035 3.39386 8.8493 3.39693C8.97824 3.40001 9.10105 3.45264 9.19221 3.54388C9.28337 3.63513 9.33588 3.75798 9.33884 3.88693C9.34179 4.01588 9.29496 4.14101 9.20808 4.23634L6.28031 7.1641H7.90352C8.03656 7.1641 8.16416 7.21695 8.25823 7.31103C8.35231 7.4051 8.40516 7.5327 8.40516 7.66574C8.40516 7.79878 8.35231 7.92637 8.25823 8.02045C8.16416 8.11453 8.03656 8.16738 7.90352 8.16738ZM5.11219 8.16738L4.71483 8.02277C4.76116 8.06909 4.81614 8.10587 4.87665 8.131C4.93748 8.15627 5.0027 8.16928 5.06858 8.16928C5.08316 8.16928 5.09771 8.16864 5.11219 8.16738ZM11.1344 10.262C11.2599 10.2189 11.3634 10.128 11.4223 10.009C11.4811 9.88998 11.4906 9.75255 11.4487 9.62659C11.428 9.56399 11.395 9.50614 11.3518 9.45638C11.3085 9.40661 11.2558 9.36593 11.1967 9.33669C11.1376 9.30745 11.0733 9.29023 11.0075 9.28603C10.9416 9.28183 10.8757 9.29074 10.8133 9.31223C8.30961 10.1416 5.6052 10.1416 3.10149 9.31223C2.9765 9.2731 2.84116 9.2844 2.72439 9.34373C2.60763 9.40305 2.51869 9.50569 2.47659 9.62971C2.4345 9.75374 2.44257 9.88931 2.4991 10.0075C2.55563 10.1256 2.65612 10.217 2.77911 10.262C4.12677 10.712 5.53859 10.9402 6.95941 10.9375C8.37827 10.9376 9.78791 10.7095 11.1344 10.262Z" fill="black"/>
  </g>
  <defs>
    <clipPath id="clip0_4870_7163">
      <rect width="14" height="14" fill="white"/>
    </clipPath>
  </defs>
</svg>