<svg width="14" height="14" viewBox="0 0 14 14" fill="none" xmlns="http://www.w3.org/2000/svg">
<path d="M12.8348 1.12793L7.77783 4.8838L8.71298 2.66789L12.8348 1.12793Z" fill="#E2761B" stroke="#E2761B" stroke-width="0.648" stroke-linecap="round" stroke-linejoin="round"/>
<path d="M1.16064 1.12793L6.17693 4.91937L5.28751 2.66789L1.16064 1.12793Z" fill="#E4761B" stroke="#E4761B" stroke-width="0.648" stroke-linecap="round" stroke-linejoin="round"/>
<path d="M11.0153 9.83398L9.66846 11.8974L12.5502 12.6903L13.3786 9.87973L11.0153 9.83398Z" fill="#E4761B" stroke="#E4761B" stroke-width="0.648" stroke-linecap="round" stroke-linejoin="round"/>
<path d="M0.626953 9.87973L1.45029 12.6903L4.33199 11.8974L2.98516 9.83398L0.626953 9.87973Z" fill="#E4761B" stroke="#E4761B" stroke-width="0.648" stroke-linecap="round" stroke-linejoin="round"/>
<path d="M4.16922 6.34734L3.36621 7.56203L6.22758 7.68909L6.12593 4.61426L4.16922 6.34734Z" fill="#E4761B" stroke="#E4761B" stroke-width="0.648" stroke-linecap="round" stroke-linejoin="round"/>
<path d="M9.82602 6.34776L7.8439 4.5791L7.77783 7.68951L10.6341 7.56245L9.82602 6.34776Z" fill="#E4761B" stroke="#E4761B" stroke-width="0.648" stroke-linecap="round" stroke-linejoin="round"/>
<path d="M4.33203 11.8973L6.04987 11.0587L4.56582 9.8999L4.33203 11.8973Z" fill="#E4761B" stroke="#E4761B" stroke-width="0.648" stroke-linecap="round" stroke-linejoin="round"/>
<path d="M7.94531 11.0587L9.66823 11.8973L9.42936 9.8999L7.94531 11.0587Z" fill="#E4761B" stroke="#E4761B" stroke-width="0.648" stroke-linecap="round" stroke-linejoin="round"/>
<path d="M9.66872 11.8977L7.9458 11.0591L8.08302 12.1823L8.06778 12.6549L9.66872 11.8977Z" fill="#D7C1B3" stroke="#D7C1B3" stroke-width="0.648" stroke-linecap="round" stroke-linejoin="round"/>
<path d="M4.33203 11.8977L5.93297 12.6549L5.92281 12.1823L6.04987 11.0591L4.33203 11.8977Z" fill="#D7C1B3" stroke="#D7C1B3" stroke-width="0.648" stroke-linecap="round" stroke-linejoin="round"/>
<path d="M5.95813 9.15826L4.5249 8.73642L5.53629 8.27393L5.95813 9.15826Z" fill="#233447" stroke="#233447" stroke-width="0.648" stroke-linecap="round" stroke-linejoin="round"/>
<path d="M8.03662 9.15826L8.45846 8.27393L9.47493 8.73642L8.03662 9.15826Z" fill="#233447" stroke="#233447" stroke-width="0.648" stroke-linecap="round" stroke-linejoin="round"/>
<path d="M4.33169 11.8974L4.57564 9.83398L2.98486 9.87973L4.33169 11.8974Z" fill="#CD6116" stroke="#CD6116" stroke-width="0.648" stroke-linecap="round" stroke-linejoin="round"/>
<path d="M9.42432 9.83398L9.66827 11.8974L11.0151 9.87973L9.42432 9.83398Z" fill="#CD6116" stroke="#CD6116" stroke-width="0.648" stroke-linecap="round" stroke-linejoin="round"/>
<path d="M10.6336 7.56201L7.77734 7.68907L8.04163 9.15787L8.46346 8.27354L9.47993 8.73604L10.6336 7.56201Z" fill="#CD6116" stroke="#CD6116" stroke-width="0.648" stroke-linecap="round" stroke-linejoin="round"/>
<path d="M4.52499 8.73604L5.54146 8.27354L5.95821 9.15787L6.22758 7.68907L3.36621 7.56201L4.52499 8.73604Z" fill="#CD6116" stroke="#CD6116" stroke-width="0.648" stroke-linecap="round" stroke-linejoin="round"/>
<path d="M3.36621 7.56201L4.56565 9.8999L4.52499 8.73604L3.36621 7.56201Z" fill="#E4751F" stroke="#E4751F" stroke-width="0.648" stroke-linecap="round" stroke-linejoin="round"/>
<path d="M9.48002 8.73604L9.4292 9.8999L10.6337 7.56201L9.48002 8.73604Z" fill="#E4751F" stroke="#E4751F" stroke-width="0.648" stroke-linecap="round" stroke-linejoin="round"/>
<path d="M6.22737 7.68896L5.95801 9.15777L6.29344 10.8909L6.36968 8.60887L6.22737 7.68896Z" fill="#E4751F" stroke="#E4751F" stroke-width="0.648" stroke-linecap="round" stroke-linejoin="round"/>
<path d="M7.77785 7.68896L7.64062 8.60379L7.70161 10.8909L8.04213 9.15777L7.77785 7.68896Z" fill="#E4751F" stroke="#E4751F" stroke-width="0.648" stroke-linecap="round" stroke-linejoin="round"/>
<path d="M8.04169 9.15816L7.70117 10.8913L7.94512 11.059L9.42917 9.90019L9.48 8.73633L8.04169 9.15816Z" fill="#F6851B" stroke="#F6851B" stroke-width="0.648" stroke-linecap="round" stroke-linejoin="round"/>
<path d="M4.5249 8.73633L4.56556 9.90019L6.04961 11.059L6.29356 10.8913L5.95813 9.15816L4.5249 8.73633Z" fill="#F6851B" stroke="#F6851B" stroke-width="0.648" stroke-linecap="round" stroke-linejoin="round"/>
<path d="M8.06756 12.6547L8.08281 12.1821L7.95575 12.0703H6.0397L5.92281 12.1821L5.93297 12.6547L4.33203 11.8975L4.89109 12.3549L6.02445 13.1426H7.971L9.10944 12.3549L9.6685 11.8975L8.06756 12.6547Z" fill="#C0AD9E" stroke="#C0AD9E" stroke-width="0.648" stroke-linecap="round" stroke-linejoin="round"/>
<path d="M7.94514 11.0588L7.70119 10.8911H6.29337L6.04942 11.0588L5.92236 12.182L6.03926 12.0702H7.9553L8.08236 12.182L7.94514 11.0588Z" fill="#161616" stroke="#161616" stroke-width="0.648" stroke-linecap="round" stroke-linejoin="round"/>
<path d="M13.048 5.12775L13.48 3.05414L12.8345 1.12793L7.94531 4.75674L9.82578 6.34751L12.4839 7.12512L13.0734 6.439L12.8193 6.25603L13.2259 5.88502L12.9108 5.64107L13.3174 5.33104L13.048 5.12775Z" fill="#763D16" stroke="#763D16" stroke-width="0.648" stroke-linecap="round" stroke-linejoin="round"/>
<path d="M0.52002 3.05414L0.952019 5.12775L0.677573 5.33104L1.08416 5.64107L0.774137 5.88502L1.18073 6.25603L0.926608 6.439L1.51108 7.12512L4.16915 6.34751L6.04962 4.75674L1.1604 1.12793L0.52002 3.05414Z" fill="#763D16" stroke="#763D16" stroke-width="0.648" stroke-linecap="round" stroke-linejoin="round"/>
<path d="M12.4837 7.12526L9.82562 6.34766L10.6337 7.56234L9.4292 9.90023L11.0149 9.8799H13.3782L12.4837 7.12526Z" fill="#F6851B" stroke="#F6851B" stroke-width="0.648" stroke-linecap="round" stroke-linejoin="round"/>
<path d="M4.16935 6.34766L1.51128 7.12526L0.626953 9.8799H2.98516L4.56578 9.90023L3.36634 7.56234L4.16935 6.34766Z" fill="#F6851B" stroke="#F6851B" stroke-width="0.648" stroke-linecap="round" stroke-linejoin="round"/>
<path d="M7.77746 7.68934L7.94518 4.75682L8.7177 2.66797H5.28711L6.04946 4.75682L6.22735 7.68934L6.28833 8.61433L6.29341 10.8912H7.70123L7.71139 8.61433L7.77746 7.68934Z" fill="#F6851B" stroke="#F6851B" stroke-width="0.648" stroke-linecap="round" stroke-linejoin="round"/>
</svg>
