

<svg xmlns="http://www.w3.org/2000/svg" width="162" height="200" viewBox="0 0 162 200" fill="none">
  <g opacity="0.1">
    <path d="M73.5136 9.11724L9.36266 73.2682C4.32718 78.3037 4.32718 86.4678 9.36266 91.5033C14.3981 96.5388 22.5623 96.5388 27.5978 91.5033L91.7487 27.3523C96.7842 22.3168 96.7842 14.1527 91.7487 9.11723C86.7132 4.08175 78.5491 4.08175 73.5136 9.11724Z" fill="#a5a5a5"/>
    <path d="M126.94 62.5518L62.7894 126.703C57.7539 131.738 57.7539 139.902 62.7894 144.938C67.8249 149.973 75.989 149.973 81.0245 144.938L145.175 80.7869C150.211 75.7514 150.211 67.5873 145.175 62.5518C140.14 57.5163 131.976 57.5163 126.94 62.5518Z" fill="#a5a5a5"/>
    <path d="M80.9834 55.0645L16.8324 119.215C11.7969 124.251 11.7969 132.415 16.8324 137.451C21.8679 142.486 30.032 142.486 35.0675 137.451L99.2184 73.2996C104.254 68.2641 104.254 60.1 99.2184 55.0645C94.183 50.029 86.0188 50.029 80.9834 55.0645Z" fill="#a5a5a5"/>
    <path d="M134.402 108.497L70.2513 172.648C65.2159 177.684 65.2159 185.848 70.2513 190.883C75.2868 195.919 83.4509 195.919 88.4864 190.883L152.637 126.732C157.673 121.697 157.673 113.533 152.637 108.497C147.602 103.462 139.438 103.462 134.402 108.497Z" fill="#a5a5a5"/>
  </g>
</svg>
