<svg width="16" height="16" viewBox="0 0 16 16" fill="none" xmlns="http://www.w3.org/2000/svg">
<g id="ylab-apply for1 1">
<path id="Union" fill-rule="evenodd" clip-rule="evenodd" d="M10.3094 14.9609H11.4281C13.1391 14.9609 14.5328 13.6047 14.5297 11.9359C14.5297 11.5813 14.2406 11.2922 13.8859 11.2922C13.5312 11.2922 13.2422 11.5797 13.2422 11.9359C13.2422 12.8938 12.4281 13.6719 11.4266 13.6719H10.3109H4.10469C3.10313 13.6719 2.28906 12.8938 2.28906 11.9359V4.06406C2.28906 3.94434 2.30178 3.82742 2.326 3.71447C2.49551 2.92388 3.22832 2.32812 4.10469 2.32812H11.3109H11.4266C12.4281 2.32812 13.2422 3.10625 13.2422 4.06406C13.2422 4.42031 13.5312 4.70781 13.8859 4.70781C14.2406 4.70781 14.5297 4.41875 14.5297 4.06406C14.5328 2.39531 13.1391 1.03906 11.4281 1.03906H11.3094H4.10469C2.39219 1.03906 1 2.39531 1 4.06406V11.9359C1 13.6047 2.39219 14.9609 4.10469 14.9609H10.3094Z" fill="#202020"/>
<g id="Group 15977">
<path id="Vector" d="M15 8H7" stroke="#202020" stroke-width="1.5" stroke-linecap="round" stroke-linejoin="round"/>
<path id="Vector_2" d="M10 11L7 8L10 5" stroke="#202020" stroke-width="1.5" stroke-linecap="round" stroke-linejoin="round"/>
</g>
</g>
</svg>
