<svg width="17" height="16" viewBox="0 0 17 16" fill="none" xmlns="http://www.w3.org/2000/svg">
<g id="x-circle 1" clip-path="url(#clip0_2815_11576)">
<path id="Vector (Stroke)" fill-rule="evenodd" clip-rule="evenodd" d="M8.8809 2.08337C5.61322 2.08337 2.96423 4.73236 2.96423 8.00004C2.96423 11.2677 5.61322 13.9167 8.8809 13.9167C12.1486 13.9167 14.7976 11.2677 14.7976 8.00004C14.7976 4.73236 12.1486 2.08337 8.8809 2.08337ZM1.46423 8.00004C1.46423 3.90393 4.78479 0.583374 8.8809 0.583374C12.977 0.583374 16.2976 3.90393 16.2976 8.00004C16.2976 12.0962 12.977 15.4167 8.8809 15.4167C4.78479 15.4167 1.46423 12.0962 1.46423 8.00004ZM6.35057 5.46971C6.64346 5.17682 7.11834 5.17682 7.41123 5.46971L8.8809 6.93938L10.3506 5.46971C10.6435 5.17682 11.1183 5.17682 11.4112 5.46971C11.7041 5.7626 11.7041 6.23748 11.4112 6.53037L9.94156 8.00004L11.4112 9.46971C11.7041 9.7626 11.7041 10.2375 11.4112 10.5304C11.1183 10.8233 10.6435 10.8233 10.3506 10.5304L8.8809 9.0607L7.41123 10.5304C7.11834 10.8233 6.64346 10.8233 6.35057 10.5304C6.05768 10.2375 6.05768 9.7626 6.35057 9.46971L7.82024 8.00004L6.35057 6.53037C6.05768 6.23748 6.05768 5.7626 6.35057 5.46971Z" fill="black"/>
</g>
<defs>
<clipPath id="clip0_2815_11576">
<rect width="16" height="16" fill="white" transform="translate(0.880859)"/>
</clipPath>
</defs>
</svg>
