 <svg width="14" height="14" viewBox="0 0 14 14" fill="none" xmlns="http://www.w3.org/2000/svg">
    <path
    d="M4.9406 9.17382C5.61844 9.86273 5.6969 10.6033 4.94556 11.3669C4.48006 11.8396 3.7264 12.1237 2.68923 12.2454C2.63556 12.2518 2.58131 12.2515 2.52735 12.2451C2.16277 12.2007 1.89648 11.8767 1.91398 11.5066L1.91777 11.4581L1.93265 11.3356C2.05981 10.3469 2.33515 9.62298 2.78227 9.16857C3.5336 8.40527 4.26248 8.48519 4.9406 9.17382ZM11.1505 1.93669L11.2677 1.97257L11.3824 2.01077C11.5234 2.06024 11.6514 2.14118 11.7566 2.24746C11.8617 2.35373 11.9413 2.48255 11.9893 2.62415C12.4464 3.9594 12.3011 5.31215 11.5644 6.65323C11.2607 7.20565 10.8722 7.72861 10.3994 8.22182L10.2685 8.35569L10.1445 8.47702L10.141 8.51465C10.055 9.3179 9.44569 10.3801 8.32306 11.7536L8.22565 11.8723L8.04627 12.0867C7.84327 12.3276 7.46527 12.2605 7.34685 11.9759L7.33285 11.9376L6.70519 9.93448L6.64831 9.89511C6.29563 9.64386 5.95969 9.36989 5.64265 9.07494L5.4866 8.92619L5.33377 8.77452C4.88234 8.31515 4.47604 7.81352 4.12044 7.27652L4.08573 7.22257L2.04173 6.56165C1.75415 6.46832 1.6614 6.11277 1.84398 5.88936L1.86819 5.86194L1.89444 5.83744C3.5756 4.36861 4.81606 3.64032 5.70448 3.70098L5.76165 3.70594L5.7949 3.71002L5.86985 3.63419C6.27294 3.23344 6.69498 2.89248 7.13627 2.61219L7.28385 2.5209L7.41948 2.44157C8.6509 1.74332 9.90098 1.57152 11.1505 1.93698V1.93669ZM7.38244 4.7574C6.87115 5.26898 6.8729 6.09994 7.38652 6.61357C7.90015 7.12719 8.7311 7.12894 9.24269 6.61765C9.75398 6.10607 9.75223 5.27511 9.2386 4.76148C8.72498 4.24786 7.89402 4.24611 7.38244 4.7574Z"
    fill="#A7AAF9"
    />
</svg>