<svg xmlns="http://www.w3.org/2000/svg" width="24" height="24" viewBox="0 0 24 24" fill="none">
  <path fill-rule="evenodd" clip-rule="evenodd" d="M7.04393 6.4021C6.69301 6.75412 6.12316 6.755 5.77114 6.40407C5.41913 6.05315 5.41824 5.4833 5.76917 5.13128L9.22509 1.66462C9.2637 1.62589 9.30546 1.59104 9.34979 1.56032C9.49165 1.46179 9.6632 1.40302 9.84832 1.40014L9.86247 1.40002H9.86261C10.1164 1.40002 10.3456 1.50503 10.5092 1.67397L13.9558 5.13128C14.3067 5.4833 14.3058 6.05315 13.9538 6.40407C13.6018 6.755 13.0319 6.75412 12.681 6.4021L10.7626 4.47773L10.7626 10.5616C10.7626 11.0586 10.3597 11.4616 9.86261 11.4616C9.36555 11.4616 8.9626 11.0586 8.9626 10.5616L8.96261 4.47746L7.04393 6.4021ZM23.3996 4.10007C23.3996 3.60302 22.9967 3.20007 22.4996 3.20007H18.6715C18.2333 3.20007 17.8588 3.5157 17.7845 3.94757L17.168 7.5333L13.8726 7.5333C13.3755 7.5333 12.9726 7.93624 12.9726 8.4333C12.9726 8.93036 13.3755 9.3333 13.8726 9.3333L16.8586 9.3333L15.7936 15.5275C15.7532 15.6929 15.6472 15.8598 15.4691 15.9897C15.2837 16.1248 15.0391 16.2044 14.778 16.1999L14.7623 16.1998H4.67042L4.6548 16.1999C4.39368 16.2044 4.14907 16.1248 3.96367 15.9897C3.78539 15.8597 3.67945 15.6927 3.63907 15.5272L2.56852 9.3333L4.09529 9.3333C4.59234 9.3333 4.99529 8.93036 4.99529 8.4333C4.99529 7.93624 4.59234 7.5333 4.09529 7.5333L1.49962 7.5333C1.23411 7.5333 0.98216 7.65053 0.811155 7.85363C0.64015 8.05672 0.567547 8.32496 0.612766 8.58658L1.86952 15.8577C1.87181 15.871 1.87439 15.8842 1.87727 15.8973C2.01489 16.5247 2.38735 17.0681 2.90334 17.4442C3.41551 17.8176 4.04329 18.009 4.67754 17.9998H14.7552C15.3895 18.009 16.0172 17.8176 16.5294 17.4442C17.0454 17.0681 17.4179 16.5247 17.5555 15.8973C17.5584 15.8839 17.5611 15.8705 17.5634 15.857L19.43 5.00007H22.4996C22.9967 5.00007 23.3996 4.59713 23.3996 4.10007ZM2.61523 21.2584C2.61523 20.5174 3.21592 19.9167 3.9569 19.9167C4.69788 19.9167 5.29857 20.5174 5.29857 21.2584C5.29857 21.9994 4.69788 22.6001 3.9569 22.6001C3.21592 22.6001 2.61523 21.9994 2.61523 21.2584ZM14.4648 21.2584C14.4648 20.5174 15.0655 19.9167 15.8065 19.9167C16.5475 19.9167 17.1482 20.5174 17.1482 21.2584C17.1482 21.9994 16.5475 22.6001 15.8065 22.6001C15.0655 22.6001 14.4648 21.9994 14.4648 21.2584Z" fill="#202020"/>
</svg>