<svg width="16" height="16" className="ml-[4px]" viewBox="0 0 16 16" fill="none" xmlns="http://www.w3.org/2000/svg">
    <path
    d="M6.93311 2.13428C7.2276 2.13428 7.46622 2.373 7.46631 2.66748C7.46631 2.96203 7.22766 3.20068 6.93311 3.20068H3.19971V12.8013H12.8003V9.06787C12.8004 8.77345 13.0391 8.53378 13.3335 8.53369C13.6278 8.53387 13.8666 8.7735 13.8667 9.06787V12.8013C13.8665 13.39 13.389 13.8674 12.8003 13.8677H3.19971C2.61089 13.8675 2.13355 13.3901 2.1333 12.8013V3.20068C2.13346 2.61181 2.61083 2.13444 3.19971 2.13428H6.93311ZM13.3335 2.13428C13.3681 2.13429 13.4029 2.13733 13.437 2.14404C13.4575 2.14808 13.477 2.15531 13.4966 2.16162C13.5096 2.1658 13.5229 2.16911 13.5356 2.17432C13.5552 2.18233 13.573 2.19343 13.5913 2.20361C13.6039 2.21059 13.6173 2.21606 13.6294 2.22412C13.7165 2.2823 13.785 2.36554 13.8257 2.46338C13.8325 2.47985 13.8362 2.49722 13.8413 2.51416C13.856 2.56296 13.8667 2.61388 13.8667 2.66748V5.86768C13.8666 6.16207 13.6279 6.40077 13.3335 6.40088C13.039 6.40086 12.8004 6.16213 12.8003 5.86768V3.95459L7.31006 9.44482L7.22705 9.51318C7.0201 9.64993 6.73845 9.62693 6.55615 9.44482C6.34808 9.23654 6.34797 8.89816 6.55615 8.68994L12.0454 3.20068H10.1333C9.83876 3.20067 9.6001 2.96202 9.6001 2.66748C9.60019 2.37301 9.83882 2.13429 10.1333 2.13428H13.3335Z"
    fill="#7667EB"
    />
</svg>