<svg width="32" height="32" viewBox="0 0 32 32" fill="none" xmlns="http://www.w3.org/2000/svg">
<path d="M14.7603 0.925688L4.14607 11.5641C3.31329 12.4 3.31329 13.7536 4.14607 14.5894C4.97886 15.4252 6.32948 15.4252 7.1653 14.5894L17.7795 3.95097C18.6123 3.11516 18.6123 1.7615 17.7795 0.925688C16.9467 0.0898747 15.5961 0.0898747 14.7603 0.925688Z" fill="white"/>
<path d="M23.6001 9.78702L12.9859 20.4255C12.1531 21.2613 12.1531 22.6149 12.9859 23.4507C13.8187 24.2866 15.1693 24.2866 16.0051 23.4507L26.6194 12.8123C27.4522 11.9765 27.4522 10.6228 26.6194 9.78702C25.7866 8.9512 24.436 8.9512 23.6001 9.78702Z" fill="white"/>
<path d="M15.9956 8.54874L5.38142 19.1872C4.54864 20.023 4.54864 21.3767 5.38142 22.2125C6.21421 23.0483 7.56484 23.0483 8.40065 22.2125L19.0149 11.574C19.8477 10.7382 19.8477 9.38455 19.0149 8.54874C18.1821 7.71292 16.8315 7.71292 15.9956 8.54874Z" fill="white"/>
<path d="M24.8355 17.4101L14.2213 28.0485C13.3885 28.8843 13.3885 30.238 14.2213 31.0738C15.0541 31.9096 16.4047 31.9096 17.2405 31.0738L27.8547 20.4353C28.6875 19.5995 28.6875 18.2459 27.8547 17.4101C27.0219 16.5742 25.6713 16.5742 24.8355 17.4101Z" fill="white"/>
</svg>