 <svg
    viewBox="0 0 16 16"
    fill="none"
    xmlns="http://www.w3.org/2000/svg"
>
    <g clipPath="url(#clip0_11071_69945)">
    <path
        fillRule="evenodd"
        clipRule="evenodd"
        d="M12.525 6.62495C12.525 9.12401 10.4991 11.1499 8.00002 11.1499C5.50095 11.1499 3.47506 9.12401 3.47506 6.62495C3.47506 4.12589 5.50095 2.1 8.00002 2.1C10.4991 2.1 12.525 4.12589 12.525 6.62495ZM12.8797 9.42489C11.9089 11.1131 10.0872 12.2499 8.00002 12.2499C5.91282 12.2499 4.09114 11.1131 3.12035 9.42489H2.29995C1.60958 9.42489 1.04993 9.98455 1.04995 10.6749L1.04999 12.6061C1.05001 13.2964 1.60965 13.8561 2.29999 13.8561L13.6999 13.8561C14.3902 13.8561 14.9499 13.2964 14.9499 12.606L14.9498 10.6749C14.9498 9.98452 14.3902 9.42489 13.6998 9.42489H12.8797ZM13.3635 8.32489C13.5334 7.78857 13.625 7.21746 13.625 6.62495C13.625 3.51838 11.1066 1 8.00002 1C4.89344 1 2.37506 3.51838 2.37506 6.62495C2.37506 7.21746 2.46667 7.78857 2.6365 8.32489H2.29995C1.00206 8.32489 -0.0500779 9.37706 -0.0500488 10.6749L-0.0500067 12.6061C-0.0499772 13.904 1.00215 14.9561 2.29999 14.9561L13.6999 14.9561C14.9978 14.9561 16.0499 13.9039 16.0499 12.606L16.0498 10.6748C16.0498 9.37699 14.9977 8.32489 13.6998 8.32489H13.3635ZM7.99633 4.16248C8.30009 4.16248 8.54633 4.40872 8.54633 4.71248V7.88486L9.48244 6.94882C9.69723 6.73404 10.0455 6.73406 10.2603 6.94885C10.475 7.16365 10.475 7.51189 10.2602 7.72667L8.38524 9.60151C8.17045 9.81628 7.82222 9.81627 7.60744 9.60149L5.73245 7.72651C5.51766 7.51172 5.51766 7.16348 5.73245 6.94869C5.94724 6.7339 6.29548 6.7339 6.51027 6.94869L7.44633 7.88475L7.44633 4.71248C7.44633 4.40872 7.69257 4.16248 7.99633 4.16248Z"
        fill="currentColor"
    />
    </g>
    <defs>
    <clipPath id="clip0_11071_69945">
        <rect width="16" height="16" fill="white" />
    </clipPath>
    </defs>
</svg>