<svg width="10" height="10" viewBox="0 0 10 10" fill="none" xmlns="http://www.w3.org/2000/svg">
    <path d="M10 3.18182V4.09091H9.54545V4.54545H9.09091V5H8.63636V5.45455H8.18182V5.90909H7.72727V8.18182H8.18182V10H7.27273V9.54545H6.36364V9.09091H5.45455V8.63636H4.54545V9.09091H3.63636V9.54545H2.72727V10H1.81818V8.18182H2.27273V5.90909H1.81818V5.45455H1.36364V5H0.909091V4.54545H0.454545V4.09091H0V3.18182H3.18182V2.27273H3.63636V1.36364H4.09091V0.454545H4.54545V0H5.45455V0.454545H5.90909V1.36364H6.36364V2.27273H6.81818V3.18182H10Z" fill="#7667EB" />
</svg>