<svg xmlns="http://www.w3.org/2000/svg" width="41" height="40" viewBox="0 0 41 40" fill="none">
  <path d="M20.5 3.10498C29.83 3.10526 37.3934 10.6694 37.3936 19.9995C37.3934 29.3295 29.83 36.8928 20.5 36.8931C11.1697 36.8931 3.60564 29.3297 3.60547 19.9995C3.60563 10.6692 11.1697 3.10498 20.5 3.10498ZM20.5 4.10498C11.722 4.10498 4.60563 11.2215 4.60547 19.9995C4.60564 28.7774 11.722 35.8931 20.5 35.8931C29.2777 35.8928 36.3934 28.7773 36.3936 19.9995C36.3934 11.2217 29.2777 4.10526 20.5 4.10498ZM26.1543 13.6353C26.3234 13.476 26.5867 13.4516 26.7842 13.5903C27.01 13.7492 27.0641 14.0618 26.9053 14.2876L18.4609 26.2876C18.3755 26.4087 18.2405 26.4855 18.0928 26.4976C17.945 26.5096 17.7992 26.4559 17.6953 26.3501L13.4736 22.0493C13.2803 21.8523 13.2826 21.5357 13.4795 21.3423C13.6519 21.1731 13.9165 21.1538 14.1094 21.2837L14.1865 21.3491L17.9883 25.2202L26.0879 13.7114L26.1543 13.6353Z" fill="#4FEF5F"/>
</svg>