<svg viewBox="0 0 16 14" fill="none" xmlns="http://www.w3.org/2000/svg">
    <path
        fillRule="evenodd"
        clipRule="evenodd"
        d="M8.05007 10.1721C10.5491 10.1721 12.575 8.14623 12.575 5.64717C12.575 3.14811 10.5491 1.12222 8.05007 1.12222C5.551 1.12222 3.52511 3.14811 3.52511 5.64717C3.52511 8.14623 5.551 10.1721 8.05007 10.1721ZM8.05007 11.2721C10.1373 11.2721 11.9589 10.1353 12.9297 8.44711H13.7499C14.4402 8.44711 14.9999 9.00674 14.9999 9.69708L14.9999 11.6282C14.9999 12.3186 14.4403 12.8783 13.7499 12.8783L2.35004 12.8783C1.6597 12.8783 1.10006 12.3186 1.10004 11.6283L1.1 9.69714C1.09998 9.00677 1.65963 8.44711 2.35 8.44711H3.1704C4.14118 10.1353 5.96287 11.2721 8.05007 11.2721ZM13.675 5.64717C13.675 6.23968 13.5834 6.81079 13.4136 7.34711H13.7499C15.0477 7.34711 16.0998 8.39921 16.0999 9.69706L16.0999 11.6282C16.0999 12.9261 15.0478 13.9783 13.7499 13.9783L2.35004 13.9783C1.05219 13.9783 7.16182e-05 12.9262 4.21677e-05 11.6283L6.02632e-10 9.69716C-2.90756e-05 8.39927 1.05211 7.34711 2.35 7.34711H2.68655C2.51672 6.81079 2.42511 6.23968 2.42511 5.64717C2.42511 2.54059 4.94349 0.0222168 8.05007 0.0222168C11.1566 0.0222168 13.675 2.54059 13.675 5.64717ZM6.98114 3.88199C6.76813 3.66898 6.42276 3.66898 6.20975 3.88199C5.99674 4.095 5.99674 4.44036 6.20975 4.65338L7.2786 5.72223L6.20975 6.79108C5.99674 7.00409 5.99674 7.34946 6.20975 7.56247C6.42276 7.77548 6.76813 7.77548 6.98114 7.56247L8.04999 6.49362L9.11884 7.56247C9.33185 7.77548 9.67722 7.77548 9.89023 7.56247C10.1032 7.34946 10.1032 7.00409 9.89023 6.79108L8.82138 5.72223L9.89023 4.65338C10.1032 4.44036 10.1032 4.095 9.89023 3.88199C9.67722 3.66898 9.33185 3.66898 9.11884 3.88199L8.04999 4.95084L6.98114 3.88199Z"
        fill="currentColor"
    />
</svg>